<?xml version="1.0" encoding="UTF-8" standalone="no"?>
<!-- Generator: Adobe Illustrator 19.2.0, SVG Export Plug-In . SVG Version: 6.00 Build 0)  -->

<svg
   version="1.1"
   id="Layer_1"
   x="0px"
   y="0px"
   viewBox="0 0 132 43"
   enable-background="new 0 0 132 43"
   xml:space="preserve"
   sodipodi:docname="ite-logo.svg"
   inkscape:export-filename="ite-logo.png"
   inkscape:export-xdpi="96"
   inkscape:export-ydpi="96"
   inkscape:version="1.4 (unknown)"
   xmlns:inkscape="http://www.inkscape.org/namespaces/inkscape"
   xmlns:sodipodi="http://sodipodi.sourceforge.net/DTD/sodipodi-0.dtd"
   xmlns:xlink="http://www.w3.org/1999/xlink"
   xmlns="http://www.w3.org/2000/svg"
   xmlns:svg="http://www.w3.org/2000/svg"><defs
   id="defs109" /><sodipodi:namedview
   id="namedview109"
   pagecolor="#ffffff"
   bordercolor="#000000"
   borderopacity="0.25"
   inkscape:showpageshadow="2"
   inkscape:pageopacity="0.0"
   inkscape:pagecheckerboard="0"
   inkscape:deskcolor="#d1d1d1"
   inkscape:export-bgcolor="#ffffff00"
   inkscape:zoom="7.4469697"
   inkscape:cx="56.533062"
   inkscape:cy="16.516785"
   inkscape:window-width="2048"
   inkscape:window-height="1222"
   inkscape:window-x="0"
   inkscape:window-y="0"
   inkscape:window-maximized="1"
   inkscape:current-layer="g109" />
<g
   id="g109">
	<g
   id="g31">
		<path
   fill="#3C4D8D"
   d="M70.59,0.54v8.48h-1.11V0.54H70.59z"
   id="path1" />
		<path
   fill="#3C4D8D"
   d="M72.59,4.58c0-0.64-0.01-1.14-0.05-1.65h0.98l0.06,1.01h0.02c0.3-0.56,1.01-1.13,2.01-1.13    c0.84,0,2.15,0.5,2.15,2.59v3.62h-1.11V5.51c0-0.98-0.37-1.8-1.41-1.8c-0.72,0-1.28,0.52-1.48,1.13    c-0.05,0.14-0.08,0.33-0.08,0.51v3.66h-1.11V4.58z"
   id="path2" />
		<path
   fill="#3C4D8D"
   d="M79.56,4.58c0-0.64-0.01-1.14-0.05-1.65h0.98l0.06,1.01h0.03c0.3-0.56,1.01-1.13,2.01-1.13    c0.84,0,2.15,0.5,2.15,2.59v3.62h-1.11V5.51c0-0.98-0.36-1.8-1.41-1.8c-0.72,0-1.28,0.52-1.48,1.13    c-0.05,0.14-0.08,0.33-0.08,0.51v3.66h-1.11V4.58z"
   id="path3" />
		<path
   fill="#3C4D8D"
   d="M92.05,5.92c0,2.25-1.57,3.23-3.03,3.23c-1.64,0-2.92-1.21-2.92-3.13c0-2.02,1.35-3.22,3.02-3.22    C90.87,2.8,92.05,4.07,92.05,5.92z M87.23,5.98c0,1.33,0.75,2.34,1.84,2.34c1.06,0,1.85-0.99,1.85-2.36    c0-1.03-0.52-2.33-1.82-2.33C87.8,3.63,87.23,4.84,87.23,5.98z"
   id="path4" />
		<path
   fill="#3C4D8D"
   d="M93.78,2.93l1.19,3.41c0.2,0.57,0.37,1.07,0.49,1.57h0.04c0.14-0.5,0.31-1.01,0.52-1.57l1.18-3.41h1.16    l-2.39,6.09h-1.06L92.6,2.93H93.78z"
   id="path5" />
		<path
   fill="#3C4D8D"
   d="M103.63,7.56c0,0.53,0.02,1.04,0.09,1.46h-0.99l-0.09-0.77h-0.04c-0.34,0.48-0.99,0.91-1.86,0.91    c-1.23,0-1.86-0.87-1.86-1.75c0-1.47,1.31-2.28,3.66-2.26V5.02c0-0.49-0.14-1.41-1.38-1.4c-0.58,0-1.17,0.16-1.6,0.45L99.3,3.33    c0.5-0.31,1.25-0.53,2.01-0.53c1.86,0,2.31,1.27,2.31,2.48V7.56z M102.56,5.91c-1.21-0.03-2.58,0.19-2.58,1.37    c0,0.73,0.48,1.06,1.03,1.06c0.81,0,1.32-0.5,1.5-1.02c0.04-0.13,0.05-0.25,0.05-0.35V5.91z"
   id="path6" />
		<path
   fill="#3C4D8D"
   d="M106.69,1.47v1.46h1.59v0.84h-1.59v3.28c0,0.75,0.22,1.18,0.83,1.18c0.3,0,0.48-0.03,0.64-0.08L108.22,9    c-0.21,0.08-0.55,0.15-0.98,0.15c-0.52,0-0.93-0.18-1.2-0.47c-0.3-0.34-0.43-0.88-0.43-1.6V3.77h-0.94V2.93h0.94V1.8L106.69,1.47z    "
   id="path7" />
		<path
   fill="#3C4D8D"
   d="M110.75,1.22c0,0.38-0.26,0.68-0.7,0.68c-0.4,0-0.67-0.3-0.67-0.68c0-0.38,0.28-0.69,0.69-0.69    C110.48,0.53,110.75,0.83,110.75,1.22z M109.52,9.01V2.93h1.11v6.09H109.52z"
   id="path8" />
		<path
   fill="#3C4D8D"
   d="M117.97,5.92c0,2.25-1.57,3.23-3.03,3.23c-1.63,0-2.92-1.21-2.92-3.13c0-2.02,1.34-3.22,3.02-3.22    C116.79,2.8,117.97,4.07,117.97,5.92z M113.15,5.98c0,1.33,0.76,2.34,1.84,2.34c1.06,0,1.85-0.99,1.85-2.36    c0-1.03-0.52-2.33-1.82-2.33C113.72,3.63,113.15,4.84,113.15,5.98z"
   id="path9" />
		<path
   fill="#3C4D8D"
   d="M119.37,4.58c0-0.64-0.01-1.14-0.05-1.65h0.98l0.06,1.01h0.02c0.3-0.56,1.01-1.13,2.01-1.13    c0.84,0,2.15,0.5,2.15,2.59v3.62h-1.11V5.51c0-0.98-0.36-1.8-1.41-1.8c-0.72,0-1.28,0.52-1.48,1.13    c-0.05,0.14-0.08,0.33-0.08,0.51v3.66h-1.11V4.58z"
   id="path10" />
		<path
   fill="#3C4D8D"
   d="M71.1,17.15h-2.58v-0.93h6.28v0.93h-2.59v7.55H71.1V17.15z"
   id="path11" />
		<path
   fill="#3C4D8D"
   d="M75.43,21.85c0.02,1.5,0.97,2.11,2.09,2.11c0.79,0,1.28-0.14,1.68-0.31l0.2,0.79    c-0.39,0.18-1.07,0.39-2.04,0.39c-1.87,0-2.99-1.25-2.99-3.08c0-1.83,1.08-3.27,2.85-3.27c2,0,2.52,1.74,2.52,2.86    c0,0.23-0.01,0.39-0.04,0.51H75.43z M78.67,21.06c0.01-0.69-0.29-1.79-1.53-1.79c-1.13,0-1.61,1.02-1.7,1.79H78.67z"
   id="path12" />
		<path
   fill="#3C4D8D"
   d="M85.45,24.48c-0.29,0.14-0.93,0.35-1.75,0.35c-1.84,0-3.03-1.25-3.03-3.11c0-1.88,1.28-3.25,3.27-3.25    c0.66,0,1.23,0.16,1.53,0.33l-0.25,0.84c-0.26-0.14-0.68-0.29-1.28-0.29c-1.4,0-2.15,1.04-2.15,2.3c0,1.41,0.91,2.28,2.11,2.28    c0.63,0,1.04-0.15,1.36-0.29L85.45,24.48z"
   id="path13" />
		<path
   fill="#3C4D8D"
   d="M86.74,15.76h1.1v3.81h0.03c0.18-0.32,0.45-0.6,0.79-0.79c0.33-0.19,0.72-0.3,1.13-0.3    c0.82,0,2.13,0.5,2.13,2.59v3.62h-1.11v-3.5c0-0.98-0.37-1.8-1.41-1.8c-0.72,0-1.27,0.5-1.48,1.09c-0.06,0.16-0.08,0.33-0.08,0.53    v3.67h-1.1V15.76z"
   id="path14" />
		<path
   fill="#3C4D8D"
   d="M93.72,20.25c0-0.64-0.01-1.14-0.05-1.65h0.98l0.06,1.01h0.02c0.3-0.57,1.01-1.13,2.01-1.13    c0.84,0,2.15,0.5,2.15,2.59v3.62h-1.11v-3.51c0-0.98-0.36-1.8-1.41-1.8c-0.72,0-1.28,0.52-1.48,1.13    c-0.05,0.14-0.08,0.33-0.08,0.52v3.66h-1.11V20.25z"
   id="path15" />
		<path
   fill="#3C4D8D"
   d="M106.2,21.6c0,2.25-1.57,3.23-3.03,3.23c-1.63,0-2.92-1.21-2.92-3.13c0-2.02,1.35-3.22,3.02-3.22    C105.02,18.48,106.2,19.75,106.2,21.6z M101.39,21.66c0,1.33,0.75,2.34,1.84,2.34c1.06,0,1.85-0.99,1.85-2.36    c0-1.03-0.52-2.33-1.82-2.33C101.95,19.31,101.39,20.52,101.39,21.66z"
   id="path16" />
		<path
   fill="#3C4D8D"
   d="M107.6,15.76h1.11v8.93h-1.11V15.76z"
   id="path17" />
		<path
   fill="#3C4D8D"
   d="M116.07,21.6c0,2.25-1.57,3.23-3.03,3.23c-1.63,0-2.92-1.21-2.92-3.13c0-2.02,1.35-3.22,3.02-3.22    C114.89,18.48,116.07,19.75,116.07,21.6z M111.26,21.66c0,1.33,0.75,2.34,1.83,2.34c1.06,0,1.85-0.99,1.85-2.36    c0-1.03-0.52-2.33-1.82-2.33C111.82,19.31,111.26,20.52,111.26,21.66z"
   id="path18" />
		<path
   fill="#3C4D8D"
   d="M122.67,23.8c0,1.41-0.29,2.25-0.87,2.79c-0.6,0.54-1.46,0.73-2.23,0.73c-0.73,0-1.53-0.18-2.03-0.5    l0.28-0.85c0.4,0.26,1.03,0.49,1.79,0.49c1.13,0,1.96-0.59,1.96-2.14v-0.67h-0.02c-0.33,0.57-0.99,1.02-1.94,1.02    c-1.51,0-2.59-1.28-2.59-2.97c0-2.06,1.35-3.22,2.76-3.22c1.06,0,1.62,0.54,1.9,1.04h0.03l0.04-0.92h0.98    c-0.04,0.43-0.05,0.93-0.05,1.66V23.8z M121.57,21.01c0-0.19-0.01-0.35-0.06-0.49c-0.2-0.65-0.73-1.18-1.55-1.18    c-1.06,0-1.81,0.89-1.81,2.3c0,1.19,0.62,2.19,1.8,2.19c0.69,0,1.31-0.43,1.53-1.13c0.06-0.19,0.09-0.4,0.09-0.59V21.01z"
   id="path19" />
		<path
   fill="#3C4D8D"
   d="M124.9,18.61l1.32,3.6c0.15,0.4,0.3,0.88,0.4,1.25h0.02c0.11-0.37,0.24-0.83,0.39-1.27l1.21-3.57h1.17    l-1.66,4.34c-0.79,2.09-1.33,3.14-2.09,3.81c-0.55,0.46-1.08,0.65-1.36,0.7l-0.28-0.92c0.28-0.09,0.64-0.26,0.97-0.54    c0.3-0.24,0.67-0.67,0.93-1.23c0.05-0.11,0.09-0.2,0.09-0.27c0-0.06-0.03-0.15-0.09-0.29l-2.24-5.61H124.9z"
   id="path20" />
		<path
   fill="#3C4D8D"
   d="M73.87,36.4h-3.28v3.06h3.67v0.92h-4.78V31.9h4.59v0.92h-3.48v2.68h3.28V36.4z"
   id="path21" />
		<path
   fill="#3C4D8D"
   d="M75.64,35.93c0-0.64-0.01-1.14-0.05-1.65h0.98l0.06,1.01h0.03c0.3-0.57,1.01-1.13,2.01-1.13    c0.84,0,2.15,0.5,2.15,2.59v3.62h-1.11v-3.51c0-0.98-0.36-1.8-1.41-1.8c-0.72,0-1.28,0.52-1.48,1.13    c-0.05,0.14-0.07,0.33-0.07,0.52v3.66h-1.11V35.93z"
   id="path22" />
		<path
   fill="#3C4D8D"
   d="M87.82,39.48c0,1.41-0.29,2.25-0.87,2.79C86.35,42.81,85.5,43,84.73,43c-0.73,0-1.53-0.18-2.03-0.5    l0.28-0.86c0.4,0.26,1.03,0.49,1.79,0.49c1.13,0,1.96-0.59,1.96-2.14v-0.67h-0.03c-0.33,0.57-0.99,1.02-1.94,1.02    c-1.51,0-2.59-1.28-2.59-2.97c0-2.06,1.35-3.22,2.75-3.22c1.06,0,1.62,0.54,1.9,1.04h0.03l0.04-0.92h0.98    c-0.04,0.43-0.05,0.93-0.05,1.66V39.48z M86.72,36.69c0-0.19-0.01-0.35-0.06-0.49c-0.2-0.65-0.73-1.18-1.55-1.18    c-1.06,0-1.81,0.89-1.81,2.3c0,1.19,0.62,2.19,1.8,2.19c0.69,0,1.31-0.43,1.53-1.13c0.06-0.19,0.09-0.4,0.09-0.59V36.69z"
   id="path23" />
		<path
   fill="#3C4D8D"
   d="M90.8,32.58c0,0.38-0.26,0.68-0.71,0.68c-0.4,0-0.67-0.3-0.67-0.68c0-0.38,0.28-0.69,0.69-0.69    C90.53,31.88,90.8,32.19,90.8,32.58z M89.57,40.37v-6.09h1.11v6.09H89.57z"
   id="path24" />
		<path
   fill="#3C4D8D"
   d="M92.51,35.93c0-0.64-0.01-1.14-0.05-1.65h0.98l0.06,1.01h0.02c0.3-0.57,1.01-1.13,2.01-1.13    c0.84,0,2.15,0.5,2.15,2.59v3.62h-1.11v-3.51c0-0.98-0.36-1.8-1.41-1.8c-0.72,0-1.28,0.52-1.48,1.13    c-0.05,0.14-0.08,0.33-0.08,0.52v3.66h-1.11V35.93z"
   id="path25" />
		<path
   fill="#3C4D8D"
   d="M100.11,37.53c0.02,1.5,0.97,2.11,2.09,2.11c0.79,0,1.28-0.14,1.68-0.31l0.2,0.79    c-0.39,0.18-1.07,0.39-2.03,0.39c-1.87,0-2.99-1.25-2.99-3.08c0-1.84,1.08-3.27,2.85-3.27c2,0,2.51,1.74,2.51,2.85    c0,0.23-0.01,0.39-0.04,0.52H100.11z M103.35,36.74c0.01-0.69-0.29-1.79-1.53-1.79c-1.13,0-1.61,1.02-1.7,1.79H103.35z"
   id="path26" />
		<path
   fill="#3C4D8D"
   d="M106.4,37.53c0.03,1.5,0.97,2.11,2.09,2.11c0.79,0,1.28-0.14,1.69-0.31l0.2,0.79    c-0.39,0.18-1.07,0.39-2.04,0.39c-1.87,0-2.99-1.25-2.99-3.08c0-1.84,1.08-3.27,2.85-3.27c2,0,2.51,1.74,2.51,2.85    c0,0.23-0.01,0.39-0.04,0.52H106.4z M109.65,36.74c0.01-0.69-0.29-1.79-1.53-1.79c-1.13,0-1.61,1.02-1.7,1.79H109.65z"
   id="path27" />
		<path
   fill="#3C4D8D"
   d="M112.09,36.19c0-0.72-0.01-1.33-0.05-1.9H113l0.05,1.21h0.04c0.28-0.82,0.96-1.33,1.7-1.33    c0.11,0,0.2,0.01,0.3,0.02v1.04c-0.11-0.02-0.23-0.02-0.38-0.02c-0.78,0-1.33,0.58-1.48,1.41c-0.03,0.15-0.04,0.34-0.04,0.52v3.25    h-1.11V36.19z"
   id="path28" />
		<path
   fill="#3C4D8D"
   d="M117.48,32.58c0,0.38-0.26,0.68-0.7,0.68c-0.4,0-0.67-0.3-0.67-0.68c0-0.38,0.28-0.69,0.69-0.69    C117.2,31.88,117.48,32.19,117.48,32.58z M116.25,40.37v-6.09h1.11v6.09H116.25z"
   id="path29" />
		<path
   fill="#3C4D8D"
   d="M119.19,35.93c0-0.64-0.01-1.14-0.05-1.65h0.98l0.06,1.01h0.03c0.3-0.57,1.01-1.13,2.01-1.13    c0.84,0,2.15,0.5,2.15,2.59v3.62h-1.11v-3.51c0-0.98-0.37-1.8-1.41-1.8c-0.72,0-1.28,0.52-1.48,1.13    c-0.05,0.14-0.08,0.33-0.08,0.52v3.66h-1.11V35.93z"
   id="path30" />
		<path
   fill="#3C4D8D"
   d="M131.37,39.48c0,1.41-0.29,2.25-0.87,2.79c-0.6,0.54-1.46,0.73-2.23,0.73c-0.73,0-1.53-0.18-2.02-0.5    l0.28-0.86c0.4,0.26,1.03,0.49,1.79,0.49c1.13,0,1.96-0.59,1.96-2.14v-0.67h-0.02c-0.33,0.57-0.99,1.02-1.94,1.02    c-1.51,0-2.59-1.28-2.59-2.97c0-2.06,1.34-3.22,2.75-3.22c1.05,0,1.62,0.54,1.9,1.04h0.03l0.04-0.92h0.98    c-0.04,0.43-0.05,0.93-0.05,1.66V39.48z M130.27,36.69c0-0.19-0.01-0.35-0.06-0.49c-0.2-0.65-0.73-1.18-1.55-1.18    c-1.05,0-1.81,0.89-1.81,2.3c0,1.19,0.62,2.19,1.8,2.19c0.69,0,1.31-0.43,1.53-1.13c0.06-0.19,0.09-0.4,0.09-0.59V36.69z"
   id="path31" />
	</g>
	<path
   fill="#3C4D8D"
   d="M8.74,1.53v38.76H0V1.53H8.74z"
   id="path32" />
	<path
   fill="#3C4D8D"
   d="M20.99,8.89H10.52V1.53h29.79v7.36H29.73v31.4h-8.74V8.89z"
   id="path33" />
	<path
   fill="#3C4D8D"
   d="M65.16,23.9H50.9v9.2h15.93v7.19H42.16V1.53h23.87v7.19H50.9v8.05h14.26V23.9z"
   id="path34" />
	<polygon
   fill="#FFFFFF"
   points="20.53,10.82 30.52,13.09 30.53,39.02 20.53,37.18  "
   id="polygon34" />
	<path
   fill="#652217"
   d="M35.87,17.8c0.03-0.21,0.03-0.42,0-0.64c-0.19-1.17-1.32-1.99-2.54-1.83L17.1,17.48   c-1.22,0.16-2.06,1.24-1.88,2.41c0.18,1.17,1.32,1.99,2.54,1.83l16.22-2.14C34.98,19.45,35.72,18.71,35.87,17.8L35.87,17.8z"
   id="path35" />
	<path
   fill="#652217"
   d="M35.87,24.21c0.03-0.21,0.03-0.42,0-0.64c-0.19-1.17-1.32-1.99-2.54-1.83L17.1,23.88   c-1.22,0.16-2.06,1.24-1.88,2.42c0.18,1.17,1.32,1.99,2.54,1.83l16.22-2.14C34.98,25.85,35.72,25.11,35.87,24.21L35.87,24.21z"
   id="path36" />
	<path
   fill="#652217"
   d="M35.87,30.52c0.03-0.21,0.03-0.42,0-0.64c-0.19-1.17-1.32-1.99-2.54-1.83L17.1,30.19   c-1.22,0.16-2.06,1.24-1.88,2.42c0.18,1.17,1.32,1.99,2.54,1.83l16.22-2.14C34.98,32.17,35.72,31.43,35.87,30.52L35.87,30.52z"
   id="path37" />
	<rect
   x="20.06"
   y="15.35"
   fill="#FFFFFF"
   width="10.74"
   height="21.97"
   id="rect37" />
	<g
   id="g52">
		<g
   id="g49">
			<linearGradient
   id="SVGID_1_"
   gradientUnits="userSpaceOnUse"
   x1="15.1238"
   y1="15.3494"
   x2="35.9284"
   y2="15.3494">
				<stop
   offset="0"
   style="stop-color:#B36458"
   id="stop37" />
				<stop
   offset="0.0843"
   style="stop-color:#C47C6A"
   id="stop38" />
				<stop
   offset="0.1846"
   style="stop-color:#D29079"
   id="stop39" />
				<stop
   offset="0.2833"
   style="stop-color:#DB9D83"
   id="stop40" />
				<stop
   offset="0.378"
   style="stop-color:#DEA186"
   id="stop41" />
				<stop
   offset="0.4901"
   style="stop-color:#D8987E"
   id="stop42" />
				<stop
   offset="0.6687"
   style="stop-color:#C78169"
   id="stop43" />
				<stop
   offset="0.811"
   style="stop-color:#B76A54"
   id="stop44" />
				<stop
   offset="0.8547"
   style="stop-color:#B86D58"
   id="stop45" />
				<stop
   offset="0.8979"
   style="stop-color:#BC7864"
   id="stop46" />
				<stop
   offset="0.941"
   style="stop-color:#C38978"
   id="stop47" />
				<stop
   offset="0.9836"
   style="stop-color:#CDA193"
   id="stop48" />
				<stop
   offset="1"
   style="stop-color:#D1ACA0"
   id="stop49" />
			</linearGradient>
			<path
   fill="url(#SVGID_1_)"
   d="M15.13,13.46c-0.01-0.22,0.01-0.45,0.06-0.67c0.3-1.22,1.54-1.97,2.76-1.66l16.25,4.03     c1.22,0.3,1.97,1.54,1.66,2.76c-0.31,1.22-1.54,1.97-2.76,1.66l-16.25-4.03C15.86,15.3,15.18,14.43,15.13,13.46L15.13,13.46z"
   id="path49" />
		</g>
		<defs
   id="defs49">
			<filter
   id="Adobe_OpacityMaskFilter"
   filterUnits="userSpaceOnUse"
   x="15.12"
   y="11.05"
   width="20.8"
   height="8.59">
				
					<feColorMatrix
   type="matrix"
   values="-1 0 0 0 1  0 -1 0 0 1  0 0 -1 0 1  0 0 0 1 0"
   color-interpolation-filters="sRGB"
   result="source"
   id="feColorMatrix49" />
			</filter>
		</defs>
		<mask
   maskUnits="userSpaceOnUse"
   x="15.12"
   y="11.05"
   width="20.8"
   height="8.59"
   id="SVGID_2_">
			<g
   filter="url(#Adobe_OpacityMaskFilter)"
   id="g50">
				<image
   overflow="visible"
   width="25"
   height="13"
   xlink:href="../../Downloads/1C5FDE56.jpg"
   transform="matrix(1 0 0 1 13 9)"
   id="image49">
				</image>
			</g>
		</mask>
		<g
   opacity="0.15"
   mask="url(#SVGID_2_)"
   id="g51">
			<path
   fill="#0F0708"
   d="M15.13,13.46c-0.01-0.22,0.01-0.45,0.06-0.67c0.3-1.22,1.54-1.97,2.76-1.66l16.25,4.03     c1.22,0.3,1.97,1.54,1.66,2.76c-0.31,1.22-1.54,1.97-2.76,1.66l-16.25-4.03C15.86,15.3,15.18,14.43,15.13,13.46L15.13,13.46z"
   id="path50" />
		</g>
	</g>
	<path
   fill="#D3877D"
   d="M15.13,19.82c-0.01-0.22,0.01-0.45,0.06-0.68c0.3-1.22,1.54-1.96,2.76-1.66l16.25,4.03   c1.22,0.3,1.97,1.54,1.66,2.76c-0.31,1.22-1.54,1.97-2.76,1.66l-16.25-4.03C15.86,21.66,15.18,20.79,15.13,19.82L15.13,19.82z"
   id="path52" />
	<path
   fill="#D3877D"
   d="M15.13,26.18c-0.01-0.22,0.01-0.45,0.06-0.67c0.3-1.22,1.54-1.97,2.76-1.66l16.25,4.03   c1.22,0.3,1.97,1.54,1.66,2.76c-0.31,1.22-1.54,1.96-2.76,1.66l-16.25-4.03C15.86,28.02,15.18,27.16,15.13,26.18L15.13,26.18z"
   id="path53" />
	<path
   fill="#D3877D"
   d="M15.13,32.55c-0.01-0.22,0.01-0.45,0.06-0.67c0.3-1.22,1.54-1.97,2.76-1.66l16.25,4.03   c1.22,0.3,1.97,1.54,1.66,2.76c-0.31,1.22-1.54,1.96-2.76,1.66l-16.25-4.03C15.86,34.38,15.18,33.52,15.13,32.55L15.13,32.55z"
   id="path54" />
	
	
	<g
   id="g70">
		<g
   id="g67">
			<linearGradient
   id="SVGID_3_"
   gradientUnits="userSpaceOnUse"
   x1="15.1238"
   y1="21.7736"
   x2="35.9284"
   y2="21.7736">
				<stop
   offset="0"
   style="stop-color:#B36458"
   id="stop55" />
				<stop
   offset="0.0843"
   style="stop-color:#C47C6A"
   id="stop56" />
				<stop
   offset="0.1846"
   style="stop-color:#D29079"
   id="stop57" />
				<stop
   offset="0.2833"
   style="stop-color:#DB9D83"
   id="stop58" />
				<stop
   offset="0.378"
   style="stop-color:#DEA186"
   id="stop59" />
				<stop
   offset="0.4901"
   style="stop-color:#D8987E"
   id="stop60" />
				<stop
   offset="0.6687"
   style="stop-color:#C78169"
   id="stop61" />
				<stop
   offset="0.811"
   style="stop-color:#B76A54"
   id="stop62" />
				<stop
   offset="0.8547"
   style="stop-color:#B86D58"
   id="stop63" />
				<stop
   offset="0.8979"
   style="stop-color:#BC7864"
   id="stop64" />
				<stop
   offset="0.941"
   style="stop-color:#C38978"
   id="stop65" />
				<stop
   offset="0.9836"
   style="stop-color:#CDA193"
   id="stop66" />
				<stop
   offset="1"
   style="stop-color:#D1ACA0"
   id="stop67" />
			</linearGradient>
			<path
   fill="url(#SVGID_3_)"
   d="M15.13,19.88c-0.01-0.22,0.01-0.45,0.06-0.67c0.3-1.22,1.54-1.96,2.76-1.66l16.25,4.03     c1.22,0.3,1.97,1.54,1.66,2.76c-0.31,1.22-1.54,1.97-2.76,1.66l-16.25-4.03C15.86,21.72,15.18,20.86,15.13,19.88L15.13,19.88z"
   id="path67" />
		</g>
		<defs
   id="defs67">
			<filter
   id="Adobe_OpacityMaskFilter_1_"
   filterUnits="userSpaceOnUse"
   x="15.12"
   y="17.48"
   width="20.8"
   height="8.59">
				
					<feColorMatrix
   type="matrix"
   values="-1 0 0 0 1  0 -1 0 0 1  0 0 -1 0 1  0 0 0 1 0"
   color-interpolation-filters="sRGB"
   result="source"
   id="feColorMatrix67" />
			</filter>
		</defs>
		<mask
   maskUnits="userSpaceOnUse"
   x="15.12"
   y="17.48"
   width="20.8"
   height="8.59"
   id="SVGID_4_">
			<g
   filter="url(#Adobe_OpacityMaskFilter_1_)"
   id="g68">
				<image
   overflow="visible"
   width="25"
   height="14"
   xlink:href="../../Downloads/1C5FDE5E.jpg"
   transform="matrix(1 0 0 1 13 15)"
   id="image67">
				</image>
			</g>
		</mask>
		<g
   opacity="0.15"
   mask="url(#SVGID_4_)"
   id="g69">
			<path
   fill="#0F0708"
   d="M15.13,19.88c-0.01-0.22,0.01-0.45,0.06-0.67c0.3-1.22,1.54-1.96,2.76-1.66l16.25,4.03     c1.22,0.3,1.97,1.54,1.66,2.76c-0.31,1.22-1.54,1.97-2.76,1.66l-16.25-4.03C15.86,21.72,15.18,20.86,15.13,19.88L15.13,19.88z"
   id="path68" />
		</g>
	</g>
	
	
	<g
   id="g87">
		<g
   id="g84">
			<linearGradient
   id="SVGID_5_"
   gradientUnits="userSpaceOnUse"
   x1="15.1238"
   y1="28.0332"
   x2="35.9284"
   y2="28.0332">
				<stop
   offset="0"
   style="stop-color:#B36458"
   id="stop72" />
				<stop
   offset="0.0843"
   style="stop-color:#C47C6A"
   id="stop73" />
				<stop
   offset="0.1846"
   style="stop-color:#D29079"
   id="stop74" />
				<stop
   offset="0.2833"
   style="stop-color:#DB9D83"
   id="stop75" />
				<stop
   offset="0.378"
   style="stop-color:#DEA186"
   id="stop76" />
				<stop
   offset="0.4901"
   style="stop-color:#D8987E"
   id="stop77" />
				<stop
   offset="0.6687"
   style="stop-color:#C78169"
   id="stop78" />
				<stop
   offset="0.811"
   style="stop-color:#B76A54"
   id="stop79" />
				<stop
   offset="0.8547"
   style="stop-color:#B86D58"
   id="stop80" />
				<stop
   offset="0.8979"
   style="stop-color:#BC7864"
   id="stop81" />
				<stop
   offset="0.941"
   style="stop-color:#C38978"
   id="stop82" />
				<stop
   offset="0.9836"
   style="stop-color:#CDA193"
   id="stop83" />
				<stop
   offset="1"
   style="stop-color:#D1ACA0"
   id="stop84" />
			</linearGradient>
			<path
   fill="url(#SVGID_5_)"
   d="M15.13,26.14c-0.01-0.22,0.01-0.45,0.06-0.68c0.3-1.22,1.54-1.96,2.76-1.66l16.25,4.03     c1.22,0.3,1.97,1.54,1.66,2.76c-0.31,1.22-1.54,1.97-2.76,1.66l-16.25-4.03C15.86,27.98,15.18,27.12,15.13,26.14L15.13,26.14z"
   id="path84" />
		</g>
		<defs
   id="defs84">
			<filter
   id="Adobe_OpacityMaskFilter_2_"
   filterUnits="userSpaceOnUse"
   x="15.12"
   y="23.74"
   width="20.8"
   height="8.59">
				
					<feColorMatrix
   type="matrix"
   values="-1 0 0 0 1  0 -1 0 0 1  0 0 -1 0 1  0 0 0 1 0"
   color-interpolation-filters="sRGB"
   result="source"
   id="feColorMatrix84" />
			</filter>
		</defs>
		<mask
   maskUnits="userSpaceOnUse"
   x="15.12"
   y="23.74"
   width="20.8"
   height="8.59"
   id="SVGID_6_">
			<g
   filter="url(#Adobe_OpacityMaskFilter_2_)"
   id="g85">
				<image
   overflow="visible"
   width="25"
   height="14"
   xlink:href="../../Downloads/1C5FDE51.jpg"
   transform="matrix(1 0 0 1 13 21)"
   id="image84">
				</image>
			</g>
		</mask>
		<g
   opacity="0.15"
   mask="url(#SVGID_6_)"
   id="g86">
			<path
   fill="#0F0708"
   d="M15.13,26.14c-0.01-0.22,0.01-0.45,0.06-0.68c0.3-1.22,1.54-1.96,2.76-1.66l16.25,4.03     c1.22,0.3,1.97,1.54,1.66,2.76c-0.31,1.22-1.54,1.97-2.76,1.66l-16.25-4.03C15.86,27.98,15.18,27.12,15.13,26.14L15.13,26.14z"
   id="path85" />
		</g>
	</g>
	
	
	<g
   id="g104">
		<g
   id="g101">
			<linearGradient
   id="SVGID_7_"
   gradientUnits="userSpaceOnUse"
   x1="15.1238"
   y1="34.4065"
   x2="35.9284"
   y2="34.4065">
				<stop
   offset="0"
   style="stop-color:#B36458"
   id="stop89" />
				<stop
   offset="0.0843"
   style="stop-color:#C47C6A"
   id="stop90" />
				<stop
   offset="0.1846"
   style="stop-color:#D29079"
   id="stop91" />
				<stop
   offset="0.2833"
   style="stop-color:#DB9D83"
   id="stop92" />
				<stop
   offset="0.378"
   style="stop-color:#DEA186"
   id="stop93" />
				<stop
   offset="0.4901"
   style="stop-color:#D8987E"
   id="stop94" />
				<stop
   offset="0.6687"
   style="stop-color:#C78169"
   id="stop95" />
				<stop
   offset="0.811"
   style="stop-color:#B76A54"
   id="stop96" />
				<stop
   offset="0.8547"
   style="stop-color:#B86D58"
   id="stop97" />
				<stop
   offset="0.8979"
   style="stop-color:#BC7864"
   id="stop98" />
				<stop
   offset="0.941"
   style="stop-color:#C38978"
   id="stop99" />
				<stop
   offset="0.9836"
   style="stop-color:#CDA193"
   id="stop100" />
				<stop
   offset="1"
   style="stop-color:#D1ACA0"
   id="stop101" />
			</linearGradient>
			<path
   fill="url(#SVGID_7_)"
   d="M15.13,32.52c-0.01-0.22,0.01-0.45,0.06-0.68c0.3-1.22,1.54-1.97,2.76-1.66l16.25,4.03     c1.22,0.3,1.97,1.54,1.66,2.76c-0.31,1.22-1.54,1.97-2.76,1.66L16.85,34.6C15.86,34.36,15.18,33.49,15.13,32.52L15.13,32.52z"
   id="path101" />
		</g>
		<defs
   id="defs101">
			<filter
   id="Adobe_OpacityMaskFilter_3_"
   filterUnits="userSpaceOnUse"
   x="15.12"
   y="30.11"
   width="20.8"
   height="8.59">
				
					<feColorMatrix
   type="matrix"
   values="-1 0 0 0 1  0 -1 0 0 1  0 0 -1 0 1  0 0 0 1 0"
   color-interpolation-filters="sRGB"
   result="source"
   id="feColorMatrix101" />
			</filter>
		</defs>
		<mask
   maskUnits="userSpaceOnUse"
   x="15.12"
   y="30.11"
   width="20.8"
   height="8.59"
   id="SVGID_8_">
			<g
   filter="url(#Adobe_OpacityMaskFilter_3_)"
   id="g102">
				<image
   overflow="visible"
   width="25"
   height="13"
   xlink:href="../../Downloads/19DB2275.jpg"
   transform="matrix(1 0 0 1 13 28)"
   id="image101">
				</image>
			</g>
		</mask>
		<g
   opacity="0.15"
   mask="url(#SVGID_8_)"
   id="g103">
			<path
   fill="#0F0708"
   d="M15.13,32.52c-0.01-0.22,0.01-0.45,0.06-0.68c0.3-1.22,1.54-1.97,2.76-1.66l16.25,4.03     c1.22,0.3,1.97,1.54,1.66,2.76c-0.31,1.22-1.54,1.97-2.76,1.66L16.85,34.6C15.86,34.36,15.18,33.49,15.13,32.52L15.13,32.52z"
   id="path102" />
		</g>
	</g>
	
	
	<path
   opacity="0.25"
   fill="#FFFFFF"
   d="M15.82,13.52c0-1.13,0.73-2.1,1.74-2.44c-0.07-0.01-0.15-0.01-0.23-0.01   c-1.24,0-2.24,1-2.24,2.24c0,1.01,0.67,1.87,1.6,2.15C16.16,14.98,15.82,14.29,15.82,13.52z"
   id="path106" />
	<path
   opacity="0.25"
   fill="#FFFFFF"
   d="M15.82,19.95c0-1.16,0.73-2.16,1.74-2.51c-0.07-0.01-0.15-0.01-0.23-0.01   c-1.24,0-2.24,1.03-2.24,2.31c0,1.04,0.67,1.92,1.6,2.21C16.16,21.45,15.82,20.74,15.82,19.95z"
   id="path107" />
	<path
   opacity="0.25"
   fill="#FFFFFF"
   d="M15.82,26.27c0-1.17,0.73-2.16,1.74-2.51c-0.07-0.01-0.15-0.01-0.23-0.01   c-1.24,0-2.24,1.03-2.24,2.3c0,1.04,0.67,1.92,1.6,2.21C16.16,27.77,15.82,27.06,15.82,26.27z"
   id="path108" />
	<path
   opacity="0.25"
   fill="#FFFFFF"
   d="M15.82,32.63c0-1.17,0.73-2.16,1.74-2.51c-0.07-0.01-0.15-0.01-0.23-0.01   c-1.24,0-2.24,1.03-2.24,2.31c0,1.04,0.67,1.92,1.6,2.21C16.16,34.13,15.82,33.42,15.82,32.63z"
   id="path109" />
</g>
</svg>
